<?xml version="1.0" standalone="no"?><!DOCTYPE svg PUBLIC "-//W3C//DTD SVG 1.1//EN" "http://www.w3.org/Graphics/SVG/1.1/DTD/svg11.dtd"><svg t="1645671153864" class="icon" viewBox="0 0 1024 1024" version="1.1" xmlns="http://www.w3.org/2000/svg" p-id="2115" xmlns:xlink="http://www.w3.org/1999/xlink" width="200" height="200"><defs><style type="text/css"></style></defs><path d="M512 0a512 512 0 1 1 0 1024A512 512 0 0 1 512 0zM222.912 798.016a15.168 15.168 0 0 0-11.136 4.48 14.848 14.848 0 0 0-4.48 11.008c-0.128 4.032 1.536 7.936 4.48 10.88a15.104 15.104 0 0 0 11.136 4.544 15.744 15.744 0 0 0 11.392-4.544 14.656 14.656 0 0 0 4.672-10.88 14.72 14.72 0 0 0-4.672-10.88 15.68 15.68 0 0 0-11.392-4.608z m81.92-168.704h-31.04v196.48h23.936v-141.952c0-13.824-0.384-22.848-1.088-27.008h0.832c1.728 4.288 3.84 8.448 6.4 12.352l105.344 156.608h29.056v-196.48h-23.808v138.368c0 13.632 0.512 23.296 1.472 28.928-1.984-2.624-4.8-7.04-8.832-13.184L304.896 629.312z m282.176 0H483.456v196.48h108.224v-20.8H507.392v-68.672H581.12v-20.864H507.392v-65.344h79.616v-20.8z m168.832 0H614.144v20.8h58.88v175.68h24v-175.68h58.816v-20.864zM567.808 549.76a21.76 21.76 0 0 0-14.08 4.416 13.696 13.696 0 0 0-5.568 11.072 13.44 13.44 0 0 0 3.584 9.664 29.44 29.44 0 0 0 9.92 6.08c4.48 1.92 7.552 3.52 9.088 4.928 1.6 1.28 2.432 3.2 2.368 5.12 0 4.992-3.52 7.488-10.56 7.488a22.912 22.912 0 0 1-14.464-5.12v9.216c3.904 2.176 8.512 3.2 13.76 3.2 6.4 0 11.52-1.536 15.296-4.672a13.696 13.696 0 0 0 5.12-10.88 12.992 12.992 0 0 0-4.096-9.856 32.448 32.448 0 0 0-10.24-5.888 31.552 31.552 0 0 1-8.384-4.48 7.04 7.04 0 0 1-2.24-5.504c0-2.24 0.896-4.032 2.688-5.44a11.264 11.264 0 0 1 7.04-2.048c4.8 0 8.96 1.28 12.672 3.84v-8.64a27.2 27.2 0 0 0-11.904-2.56z m51.584 0a28.288 28.288 0 0 0-20.224 7.04 28.16 28.16 0 0 0-8.128 21.632c0 8.192 2.368 14.72 7.168 19.712 4.864 5.12 11.52 7.68 19.84 7.68 8.512 0 15.232-2.56 20.224-7.68a28.16 28.16 0 0 0 7.488-20.48 28.8 28.8 0 0 0-6.976-20.48 25.408 25.408 0 0 0-19.392-7.424z m-195.2 0a27.968 27.968 0 0 0-21.12 8.064 29.184 29.184 0 0 0-7.872 21.248c0 7.872 2.432 14.208 7.168 19.2a25.6 25.6 0 0 0 19.328 7.616 29.44 29.44 0 0 0 15.168-3.84v-8.064a23.04 23.04 0 0 1-13.632 4.544 18.048 18.048 0 0 1-13.76-5.44 20.736 20.736 0 0 1-5.12-14.72c0-6.528 1.92-11.712 5.568-15.616a18.176 18.176 0 0 1 13.888-5.696c4.672 0 9.088 1.408 13.248 4.224v-8.832a29.248 29.248 0 0 0-12.928-2.688z m87.552 0a28.288 28.288 0 0 0-20.224 7.04 28.16 28.16 0 0 0-8.128 21.632c0 8.192 2.368 14.72 7.168 19.712 4.864 5.12 11.52 7.68 19.84 7.68a26.88 26.88 0 0 0 20.224-7.68 28.224 28.224 0 0 0 7.488-20.48 28.8 28.8 0 0 0-6.976-20.48 25.472 25.472 0 0 0-19.392-7.424z m194.368-14.528l-8.896 2.752v13.056h-9.6v7.296h9.6v31.616c0 10.56 4.864 15.808 14.528 15.808a17.344 17.344 0 0 0 8.384-1.728v-7.296a9.6 9.6 0 0 1-5.76 1.728c-2.944 0-5.12-0.768-6.4-2.304-1.28-1.472-1.856-4.032-1.856-7.68v-30.144h14.016V551.04h-14.016v-15.808z m-27.52-11.072a17.472 17.472 0 0 0-12.032 4.352 17.408 17.408 0 0 0-5.76 13.824v8.704h-9.408v7.296h9.472v46.208h8.96v-46.208h12.992V551.04h-13.056v-8.256c0-7.552 3.072-11.328 9.344-11.328 2.048 0 4.096 0.448 5.888 1.408v-7.744a18.112 18.112 0 0 0-6.4-0.96z m-392.64 5.44h-12.096v74.944h8.832v-50.176c0-6.784-0.128-11.648-0.448-14.656a57.792 57.792 0 0 0 2.56 7.68l26.56 57.152h4.48l26.56-57.6a46.592 46.592 0 0 0 2.304-7.232c-0.256 5.76-0.512 10.56-0.512 14.528v50.304h9.088v-74.88h-11.392l-24.448 52.032c-1.28 3.008-2.56 6.08-3.712 9.152-0.96-2.048-2.112-5.056-3.84-8.96l-23.936-52.288z m95.488 21.44h-8.96v53.504h8.96V551.04z m92.608-0.896a13.632 13.632 0 0 0-8.512 2.88 18.688 18.688 0 0 0-6.016 9.088h-0.256V551.04h-8.896v53.504h8.96V577.28c0-6.208 1.28-11.072 4.16-14.592a11.136 11.136 0 0 1 9.088-4.672c3.008 0 5.248 0.576 6.784 1.728v-8.896a14.848 14.848 0 0 0-5.312-0.704z m36.992 6.912c5.632 0 9.984 1.728 13.12 5.12 3.2 3.648 4.8 8.896 4.8 15.744a22.848 22.848 0 0 1-4.48 15.168c-3.072 3.648-7.552 5.44-13.44 5.44a17.536 17.536 0 0 1-13.44-5.376 21.12 21.12 0 0 1-5.12-15.04c0-6.848 1.792-12.096 5.312-15.808a17.472 17.472 0 0 1 13.248-5.248z m107.712 0c5.568 0 9.92 1.728 13.056 5.12 3.2 3.648 4.864 8.896 4.864 15.744a22.848 22.848 0 0 1-4.544 15.168c-3.072 3.648-7.552 5.44-13.44 5.44a17.728 17.728 0 0 1-13.504-5.376 21.248 21.248 0 0 1-4.992-15.04c0-6.848 1.728-12.096 5.248-15.808a17.536 17.536 0 0 1 13.312-5.248z m207.36-337.6l-46.08 0.128c-10.24 0.064-20.544 0.896-30.72 2.496-25.856 4.096-47.68 15.872-63.36 38.4-9.92 14.208-15.488 30.528-20.48 47.104-13.12 43.2-26.368 86.272-39.68 129.344-2.368 7.68-5.504 14.976-8.32 22.464H616.32c-0.448-1.28-1.024-2.624-1.408-4.032-4.608-18.432-9.472-36.8-13.824-55.36-7.68-32.32-14.336-64.896-25.216-96.32a202.88 202.88 0 0 0-20.672-44.48c-14.4-22.208-33.536-33.92-60.032-33.472-49.408 0.704-98.816 0.192-148.16 0.256a58.816 58.816 0 0 0-6.976 0.448c-13.952 1.6-26.24 7.808-37.76 15.68-22.656 15.488-40.832 35.904-57.28 58.112a533.376 533.376 0 0 0-59.648 105.728 752.96 752.96 0 0 0-38.336 112.256c-1.408 5.568-1.152 6.016 4.352 5.952 23.232-0.192 46.4-0.256 69.632-0.768 15.488-0.384 30.784-4.224 44.8-11.264 24.064-12.16 39.488-32.64 48.128-58.304 8.96-26.88 16.512-54.272 24.832-81.408 2.24-7.424 3.584-15.616 7.68-21.76a423.04 423.04 0 0 1 50.176-63.744l3.328-3.328c0.64 1.6 1.216 2.688 1.472 3.776 4.352 17.152 8.896 34.24 12.928 51.456 8.512 36.8 16 73.92 29.312 109.312 7.296 19.392 16.192 37.76 31.104 52.224a52.096 52.096 0 0 0 37.056 15.808c48.192 0.064 96.448-0.128 144.64 0.128 13.632 0.128 25.6-4.224 36.8-11.584 16.448-10.88 29.44-25.6 41.6-41.088 16.64-20.992 31.36-43.456 44.8-66.624 21.12-36.16 41.6-72.704 61.952-109.248 11.776-20.992 22.912-42.304 34.304-63.488 0.64-1.28 1.088-2.56 1.792-4.416-2.304-0.128-3.904-0.32-5.568-0.32-30.72 0-61.376-0.256-92.032 0.064z" fill="#1D39C4" p-id="2116"></path></svg>